<?xml version="1.0" encoding="UTF-8" standalone="no"?>
<svg width="62px" height="49px" viewBox="0 0 62 49" version="1.1" xmlns="http://www.w3.org/2000/svg" xmlns:xlink="http://www.w3.org/1999/xlink">
    <!-- Generator: Sketch 3.6.1 (26313) - http://www.bohemiancoding.com/sketch -->
    <title>Combined Shape</title>
    <desc>Created with Sketch.</desc>
    <defs></defs>
    <g id="Page-1" stroke="none" stroke-width="1" fill="none" fill-rule="evenodd" stroke-linecap="square">
        <path d="M14.6432161,47.5230907 L14.5234536,47.1184388 L4.71117306,13.9648241 L2.28140704,13.9648241 L1.52763819,13.9648241 L1.52763819,13.8894472 L1,13.8894472 L1,13.1356784 L1,1.82914573 L1,1.07537688 L1.07537688,1.07537688 L1.07537688,1 L1.82914573,1 L21.4416254,1 L22.1953942,1 L22.1953942,1.07537688 L22.2562814,1.07537688 L22.2562814,1.82914573 L22.2562814,12.9095477 L22.2562814,13.6633166 L21.0879397,13.6633166 L20.6733668,13.6633166 L18.7305804,13.6633166 L22.5194545,30.8395458 L27.2590723,13.9123393 L27.3287987,13.6633166 L25.4974874,13.6633166 L25.0829146,13.6633166 L23.9145729,13.6633166 L23.9145729,12.9095477 L23.9145729,1.82914573 L23.9145729,1.07537688 L23.9899497,1.07537688 L23.9899497,1 L24.7437186,1 L41.3266332,1 L42.080402,1 L42.080402,1.07537688 L42.1557789,1.07537688 L42.1557789,1.82914573 L42.1557789,13.1356784 L42.1557789,13.8894472 L41.3266332,13.8894472 L41.3266332,13.9648241 L40.5728643,13.9648241 L38.8417837,13.9648241 L43.8434632,31.1500821 L47.6409547,13.9648241 L45.6984925,13.9648241 L44.9447236,13.9648241 L44.9447236,13.8894472 L44.1155779,13.8894472 L44.1155779,13.1356784 L44.1155779,1.82914573 L44.1155779,1.07537688 L44.1909548,1.07537688 L44.1909548,1 L44.9447236,1 L60.1708543,1 L60.9246231,1 L60.9246231,1.07537688 L61,1.07537688 L61,1.82914573 L61,13.1356784 L61,13.8894472 L60.9246231,13.8894472 L60.9246231,13.9648241 L60.1708543,13.9648241 L57.6371885,13.9648241 L47.9301866,47.5659847 L47.7209858,48.2901411 L47.3602539,48.1859296 L46.9045226,48.1859296 L35.5979899,48.1859296 L35.4057448,48.1859296 L35.058898,48.2764114 L35.035294,48.1859296 L34.8442211,48.1859296 L34.8442211,47.4534835 L30.9200364,32.4107756 L26.8266296,47.1067772 L26.624375,47.8329043 L26.5527638,47.8129578 L26.5527638,48.3366834 L25.798995,48.3366834 L15.3969849,48.3366834 L14.6432161,48.3366834 L14.6432161,47.5230907 Z M16.0100113,46.8291457 L15.9690087,46.6906064 L6.01925992,13.0725159 L5.80534371,12.3497384 L5.44196186,12.4572864 L4.99497487,12.4572864 L2.50753769,12.4572864 L2.50753769,2.50753769 L20.7487437,2.50753769 L20.7487437,12.1557789 L20.6733668,12.1557789 L18.3980353,12.1557789 L18.3827493,12.0864823 L18.068605,12.1557789 L17.959799,12.1557789 L17.2060302,12.1557789 L17.2060302,12.3460527 L16.9106029,12.4112205 L17.072972,13.1472937 L21.5955851,33.6498063 L21.7579542,34.3858795 L23.2301006,34.0611413 L23.1895331,33.8772354 L23.2311564,33.8888899 L23.434395,33.1630376 L28.7107769,14.3188165 L28.8943169,13.6633166 L28.9648241,13.6633166 L28.9648241,12.1557789 L28.2110553,12.1557789 L25.4974874,12.1557789 L25.4221106,12.1557789 L25.4221106,2.50753769 L40.6482412,2.50753769 L40.6482412,12.4572864 L40.5728643,12.4572864 L38.4030227,12.4572864 L38.372395,12.3520528 L38.0108229,12.4572864 L37.8592965,12.4572864 L37.1055276,12.4572864 L37.1055276,12.7207679 L36.9249171,12.7733336 L37.1055276,13.393893 L37.1055276,13.9648241 L37.2716942,13.9648241 L43.0149545,33.6980776 L43.225595,34.4218166 L44.0741318,34.1748544 L44.6889517,34.3107134 L44.8515913,33.5747 L49.2988275,13.4490718 L49.4614672,12.7130584 L49.1658291,12.6477301 L49.1658291,12.4572864 L48.4120603,12.4572864 L48.3039907,12.4572864 L47.9894403,12.387779 L47.974081,12.4572864 L45.6984925,12.4572864 L45.6231156,12.4572864 L45.6231156,2.50753769 L59.4924623,2.50753769 L59.4924623,12.4572864 L57.4572864,12.4572864 L56.7035176,12.4572864 L56.7035176,12.5654916 L56.4900694,12.5038288 L56.2808687,13.2279852 L46.6174179,46.678392 L36.200013,46.678392 L31.8047366,29.8298327 L31.6144689,29.100473 L30.1884916,29.4724671 L30.1746199,29.4686033 L30.1723725,29.476672 L30.1557494,29.4810085 L30.1632045,29.5095865 L29.9723654,30.1947303 L25.3743754,46.702268 L25.3390351,46.8291457 L16.0100113,46.8291457 Z" id="Combined-Shape" stroke="#FFFFFF" fill="#FFFFFF"></path>
    </g>
</svg>