<?xml version="1.0" encoding="UTF-8" standalone="no"?>
<svg width="82px" height="65px" viewBox="0 0 82 65" version="1.1" xmlns="http://www.w3.org/2000/svg" xmlns:xlink="http://www.w3.org/1999/xlink">
    <!-- Generator: Sketch 3.6.1 (26313) - http://www.bohemiancoding.com/sketch -->
    <title>Combined Shape</title>
    <desc>Created with Sketch.</desc>
    <defs></defs>
    <g id="Page-1" stroke="none" stroke-width="1" fill="none" fill-rule="evenodd" stroke-linecap="square">
        <path d="M19.1909548,63.0307876 L19.0312715,62.4912518 L5.94823075,18.2864322 L2.70854271,18.2864322 L1.70351759,18.2864322 L1.70351759,18.1859296 L1,18.1859296 L1,17.1809045 L1,2.10552764 L1,1.10050251 L1.10050251,1.10050251 L1.10050251,1 L2.10552764,1 L28.2555005,1 L29.2605257,1 L29.2605257,1.10050251 L29.3417085,1.10050251 L29.3417085,2.10552764 L29.3417085,16.879397 L29.3417085,17.8844221 L27.7839196,17.8844221 L27.2311558,17.8844221 L24.6407739,17.8844221 L29.692606,40.7860611 L36.0120965,18.2164523 L36.1050649,17.8844221 L33.6633166,17.8844221 L33.1105528,17.8844221 L31.5527638,17.8844221 L31.5527638,16.879397 L31.5527638,2.10552764 L31.5527638,1.10050251 L31.6532663,1.10050251 L31.6532663,1 L32.6582915,1 L54.7688442,1 L55.7738693,1 L55.7738693,1.10050251 L55.8743719,1.10050251 L55.8743719,2.10552764 L55.8743719,17.1809045 L55.8743719,18.1859296 L54.7688442,18.1859296 L54.7688442,18.2864322 L53.7638191,18.2864322 L51.4557116,18.2864322 L58.1246176,41.2001094 L63.1879396,18.2864322 L60.5979899,18.2864322 L59.5929648,18.2864322 L59.5929648,18.1859296 L58.4874372,18.1859296 L58.4874372,17.1809045 L58.4874372,2.10552764 L58.4874372,1.10050251 L58.5879397,1.10050251 L58.5879397,1 L59.5929648,1 L79.8944724,1 L80.8994975,1 L80.8994975,1.10050251 L81,1.10050251 L81,2.10552764 L81,17.1809045 L81,18.1859296 L80.8994975,18.1859296 L80.8994975,18.2864322 L79.8944724,18.2864322 L76.5162513,18.2864322 L63.5735821,63.0879796 L63.2946478,64.0535214 L62.8136719,63.9145729 L62.2060302,63.9145729 L47.1306533,63.9145729 L46.8743264,63.9145729 L46.4118639,64.0352152 L46.380392,63.9145729 L46.1256281,63.9145729 L46.1256281,62.937978 L40.8933819,42.8810341 L35.4355061,62.4757029 L35.1658334,63.4438724 L35.0703518,63.417277 L35.0703518,64.1155779 L34.0653266,64.1155779 L20.1959799,64.1155779 L19.1909548,64.1155779 L19.1909548,63.0307876 Z M21.0133484,62.1055276 L20.9586782,61.9208085 L7.69234656,17.0966879 L7.40712494,16.1329846 L6.92261581,16.2763819 L6.32663317,16.2763819 L3.01005025,16.2763819 L3.01005025,3.01005025 L27.3316583,3.01005025 L27.3316583,15.8743719 L27.2311558,15.8743719 L24.1973805,15.8743719 L24.1769991,15.7819765 L23.7581399,15.8743719 L23.6130653,15.8743719 L22.6080402,15.8743719 L22.6080402,16.1280703 L22.2141373,16.2149607 L22.4306294,17.1963916 L28.4607801,44.533075 L28.6772722,45.514506 L30.6401341,45.0815217 L30.5860441,44.8363139 L30.6415418,44.8518532 L30.9125267,43.8840502 L37.9477025,18.758422 L38.1924225,17.8844221 L38.2864322,17.8844221 L38.2864322,15.8743719 L37.281407,15.8743719 L33.6633166,15.8743719 L33.5628141,15.8743719 L33.5628141,3.01005025 L53.8643216,3.01005025 L53.8643216,16.2763819 L53.7638191,16.2763819 L50.8706969,16.2763819 L50.82986,16.1360704 L50.3477639,16.2763819 L50.1457286,16.2763819 L49.1407035,16.2763819 L49.1407035,16.6276905 L48.8998894,16.6977782 L49.1407035,17.5251906 L49.1407035,18.2864322 L49.3622589,18.2864322 L57.0199394,44.5974368 L57.3007933,45.5624221 L58.4321757,45.2331392 L59.2519356,45.4142846 L59.4687885,44.4329333 L65.3984367,17.5987625 L65.6152896,16.6174112 L65.2211055,16.5303068 L65.2211055,16.2763819 L64.2160804,16.2763819 L64.0719877,16.2763819 L63.6525871,16.1837054 L63.632108,16.2763819 L60.5979899,16.2763819 L60.4974874,16.2763819 L60.4974874,3.01005025 L78.9899497,3.01005025 L78.9899497,16.2763819 L76.2763819,16.2763819 L75.2713568,16.2763819 L75.2713568,16.4206554 L74.9867593,16.3384384 L74.7078249,17.3039802 L61.8232238,61.9045226 L47.9333506,61.9045226 L42.0729822,39.439777 L41.8192918,38.4672973 L39.9179888,38.9632894 L39.8994933,38.9581377 L39.8964966,38.9688961 L39.8743325,38.974678 L39.8842727,39.0127821 L39.6298205,39.9263071 L33.4991672,61.9363574 L33.4520467,62.1055276 L21.0133484,62.1055276 Z" id="Combined-Shape" stroke="#FFFFFF" fill="#FFA500"></path>
    </g>
</svg>