<?xml version="1.0" encoding="UTF-8" standalone="no"?>
<svg width="51px" height="100px" viewBox="0 0 51 100" version="1.1" xmlns="http://www.w3.org/2000/svg" xmlns:xlink="http://www.w3.org/1999/xlink">
    <!-- Generator: Sketch 39.1 (31720) - http://www.bohemiancoding.com/sketch -->
    <title>Phantom</title>
    <desc>Created with Sketch.</desc>
    <defs></defs>
    <g id="Page-1" stroke="none" stroke-width="1" fill="none" fill-rule="evenodd" stroke-linecap="square">
        <g id="Phantom" stroke="#000000">
            <path d="M16.015625,73.828125 C16.015625,73.828125 16.6914796,70.1817115 18.75,67.1875 C20.8085204,64.1932885 24.609375,61.328125 24.609375,61.328125 C24.609375,61.328125 27.3845664,60.0837889 28.90625,60.15625 C30.1189414,60.2139972 32.8125,61.71875 32.8125,61.71875 C32.8125,61.71875 33.7283371,64.2791295 33.59375,65.625 C33.4679204,66.8832961 32.03125,69.53125 32.03125,69.53125 L23.4375,77.34375" id="Line"></path>
            <path d="M30.078125,71.484375 C30.078125,71.484375 33.082437,70.3670098 34.375,71.875 C35.667563,73.3829902 34.375,76.5625 34.375,76.5625 C34.375,76.5625 30.7535881,82.4108853 28.125,83.59375 C25.5452548,84.7546353 20.592732,84.7663976 18.75,83.59375 C16.907268,82.4211024 17.5318171,80.7996257 17.96875,78.90625 C18.3130671,77.414209 21.09375,73.4375 21.09375,73.4375" id="Line"></path>
            <path d="M42.670612,23.5923202 C42.670612,23.5923202 40.2785391,22.8629846 37.9347891,22.8629846 C35.5910391,22.8629846 33.2472891,24.4254846 33.2472891,24.4254846 C33.2472891,24.4254846 32.4660391,25.2067346 32.4660391,25.9879846 C32.4660391,26.7692346 32.971639,27.1370095 33.2472891,27.5504846 C33.5229391,27.9639597 34.0285391,28.3317346 34.0285391,28.3317346 C34.0285391,28.3317346 36.1928632,28.4918472 37.1535391,28.3317346 C38.114215,28.1716219 38.7160391,27.5504846 38.7160391,27.5504846 C38.7160391,27.5504846 41.8410391,24.4254846 41.8410391,24.4254846 L42.670612,23.5923202 Z" id="Line" transform="translate(37.568326, 25.632940) rotate(-11.000000) translate(-37.568326, -25.632940) "></path>
            <path d="M34.5441599,24.2549897 C34.5441599,24.2549897 34.5441599,24.0596772 34.5441599,25.4268647 L34.5441599,28.1612397" id="Line" transform="translate(34.934785, 26.203292) rotate(-5.000000) translate(-34.934785, -26.203292) "></path>
            <path d="M36.1395188,23.4741623 C36.1395188,23.4741623 36.1395188,23.2412413 36.1395188,24.8716881 L36.1395188,28.1325817" id="Line-Copy-4" transform="translate(36.530144, 25.797621) rotate(-5.000000) translate(-36.530144, -25.797621) "></path>
            <path d="M37.7359345,22.6933484 C37.7359345,22.6933484 37.7359345,22.4216094 37.7359345,24.3237823 L37.7359345,28.1281281" id="Line-Copy-5" transform="translate(38.126559, 25.404029) rotate(-5.000000) translate(-38.126559, -25.404029) "></path>
            <path d="M39.2316599,22.6924897 C39.2316599,22.6924897 39.2316599,22.4971772 39.2316599,23.8643647 L39.2316599,26.5987397" id="Line-Copy-6"></path>
            <path d="M39.453125,73.046875 C39.453125,73.046875 41.9353017,67.8098692 43.359375,64.453125 C43.7582184,63.5129942 44.921875,60.15625 44.921875,60.15625 L45.703125,50.390625" id="Line"></path>
            <path d="M42.578125,33.203125 C42.578125,33.203125 42.1875,37.6257655 42.1875,39.84375 C42.1875,40.2277108 40.9195905,42.0926366 40.9195905,42.0926366 C40.3254202,43.0079731 39.0165093,44.0946836 37.9911259,44.5219267 L38.8496518,44.1642076 C36.8098423,45.0141282 34.2232338,44.3852808 33.203125,43.75 C33.203125,43.75 35.9375,45.3125 33.203125,43.75 C32.2926584,43.2297334 29.7077528,44.2900089 28.90625,44.53125 C27.3006253,45.0145205 27.6957738,45.4624985 26.953125,46.09375 C25.4623258,47.3609293 25.390625,50.390625 25.390625,50.390625 C25.390625,50.390625 24.8183436,52.2636618 26.171875,53.125 C27.5254064,53.9863382 29.2788352,53.0228338 29.6875,53.125 C30.0961648,53.2271662 29.4968146,53.9940838 30.859375,54.296875 C32.2219354,54.5996662 33.4354582,54.2721946 33.984375,53.90625 C34.5332918,53.5403054 34.375,51.953125 34.375,51.953125 C34.375,51.953125 42.8335675,51.4996211 45.3125,50.390625 C47.7814842,49.2860794 47.65625,50 49.21875,45.3125 C50.78125,40.625 48.5569364,37.3868278 48.4375,31.25 C48.3577986,27.154818 49.0224779,24.8011688 48.4375,22.65625 C47.5553454,19.4216831 42.1875,19.53125 42.1875,19.53125" id="Line"></path>
            <path d="M22.265625,30.859375 C22.265625,30.859375 17.3520605,30.828568 11.3078789,31.1789864 C11.3078789,31.1789864 13.71914,30.6393961 10.9375,31.25 C8.15586001,31.8606039 7.8125,32.8125 6.25,34.375 C5.40873876,35.2162612 4.84117284,45.80136 4.84117284,45.80136 C4.84117284,45.80136 2.0720261,47.0379414 1.5625,47.65625 C0.362038234,49.1130072 0.78125,50 0.78125,50 L0.78125,50.9059906 C0.78125,52.5629881 1.67350056,54.8970954 2.20285307,55.4849421 L2.20285307,55.4849421 C2.20285307,55.4849421 2.24210902,55.5242056 2.36085596,55.6429526 C2.71140889,55.9935055 2.34375,56.25 3.125,56.25 L3.90625,56.25 C4.37896793,56.25 5.13064508,57.5170699 7.03125,56.25 C8.93185492,54.9829301 10.3895808,57.1937651 10.9375,53.90625 C11.4854192,50.6187349 10.6710899,48.6066659 10.9375,46.875 C11.2039101,45.1433341 11.8531447,44.7202829 12.5,43.75 C12.8948114,43.1577829 14.0625,42.1875 14.0625,42.1875 L22.65625,42.1875" id="Line"></path>
            <path d="M17.578125,42.578125 L17.578125,51.171875 C17.578125,51.171875 14.2025898,57.3308079 13.28125,60.15625 C12.2494648,63.3203912 11.71875,69.140625 11.71875,69.140625 C11.71875,69.140625 11.3397792,73.8439114 11.71875,76.171875 C12.2512375,79.4428698 14.453125,85.9375 14.453125,85.9375 C14.453125,85.9375 9.765625,89.453125 8.984375,91.015625 C8.203125,92.578125 7.52434513,93.2825789 7.8125,94.53125 C8.10065487,95.7799211 9.20425138,95.9978749 10.15625,96.09375 C11.1429973,96.1931246 11.7047474,95.3125 12.5,95.3125 C14.0625,95.3125 15.625,94.140625 15.625,94.140625 C15.625,94.140625 21.330944,90.9522586 23.828125,89.0625 C26.1486523,87.3064253 25.78125,85.9375 30.078125,83.203125 C34.375,80.46875 44.140625,83.203125 44.140625,83.203125" id="Line"></path>
            <path d="M29.296875,83.984375 L29.296875,89.7301311 C29.296875,89.7301311 29.8825451,92.858884 30.46875,94.2446538 C30.9242117,95.3213509 32.421875,97.527943 32.421875,97.527943 L34.375,99.21875 C34.375,99.21875 36.9222458,100.227098 37.890625,98.3487653 C38.6149541,96.9438087 40.234375,90.1405423 40.234375,90.1405423" id="Line"></path>
            <path d="M37.109375,89.453125 L48.046875,89.453125 C48.046875,89.453125 49.7270382,88.8836267 50,87.109375 C50.2478715,85.49821 49.609375,79.296875 49.609375,79.296875 C49.609375,79.296875 48.3736636,74.3585868 47.265625,72.265625 C46.0299136,69.9315035 42.578125,66.015625 42.578125,66.015625" id="Line"></path>
            <path d="M19.140625,30.078125 C19.140625,30.078125 18.4656262,17.7609149 18.75,12.5 C18.8820581,10.0569259 21.0305508,5.6240065 24.21875,3.125 C25.164222,2.38391059 26.2756367,0.997980093 28.125,0.78125 C29.2229371,0.652580854 30.4944224,0.507167544 32.03125,0.78125 C32.7585213,0.910953749 31.808691,0.78125 32.8125,0.78125 C34.1605485,0.78125 37.2164757,3.01628773 38.4790047,4.66960634 C39.0526943,5.4208697 40.7198767,8.03148207 41.40625,10.9375 C41.9261496,13.1386894 42.1875,15.7540306 42.1875,17.96875 C42.1875,21.875 42.1875,22.65625 42.1875,22.65625" id="Line"></path>
            <path d="M2.734375,55.078125 L3.515625,51.953125" id="Line"></path>
            <path d="M5.078125,55.859375 L5.859375,52.734375" id="Line-Copy-2"></path>
            <path d="M8.203125,55.078125 L8.984375,51.953125" id="Line-Copy-3"></path>
            <path d="M27.734375,51.171875 L28.515625,49.609375" id="Line"></path>
            <path d="M30.078125,52.734375 L30.859375,51.171875" id="Line-Copy"></path>
            <path d="M25.390625,50.390625 L30.078125,52.734375" id="Line"></path>
            <path d="M31.640625,26.5625 C31.640625,26.5625 31.25,27.4968465 31.25,27.734375 C31.25,28.5385132 31.640625,29.6875 31.640625,29.6875" id="Line" fill="#D8D8D8" transform="translate(31.640625, 28.125000) rotate(-13.000000) translate(-31.640625, -28.125000) "></path>
            <path d="M41.5121731,13.644921 C41.5121731,13.644921 39.9472412,12.8661028 38.7777981,14.035546 C37.608355,15.2049891 37.6059231,17.551171 37.6059231,17.551171 C37.6059231,17.551171 38.6422802,17.2438885 39.5590481,17.160546 C40.475816,17.0772034 41.9027981,17.160546 41.9027981,17.160546" id="Line" transform="translate(39.754361, 15.471005) rotate(-3.000000) translate(-39.754361, -15.471005) "></path>
            <polyline id="Line" transform="translate(39.363502, 12.628866) rotate(13.000000) translate(-39.363502, -12.628866) " points="40.9603807 11.2616787 38.9384974 12.0429287 37.7666224 13.9960537"></polyline>
            <path d="M35.7490549,12.9358304 C35.7490549,12.9358304 35.1813056,11.1824597 34.455872,10.7881725 C33.7444357,10.4014932 31.4384451,10.5929309 31.4384451,10.5929309" id="Line" transform="translate(33.593750, 11.740687) rotate(-11.000000) translate(-33.593750, -11.740687) "></path>
            <path d="M32.6063133,16.580056 C31.3057946,16.2799363 29.8719383,16.189431 29.8719383,16.189431 C29.8719383,16.189431 31.0454941,13.6266129 31.8250633,12.673806 C32.2173691,12.1943212 33.3875633,11.892556 33.3875633,11.892556 C33.3875633,11.892556 34.645389,12.3886958 34.9500633,13.455056 C35.1662223,14.2116125 34.9500633,17.361306 34.9500633,17.361306 C34.9500633,17.361306 33.906832,16.8801757 32.6063133,16.580056 Z" id="Line" transform="translate(32.459036, 14.626931) rotate(-4.000000) translate(-32.459036, -14.626931) "></path>
        </g>
    </g>
</svg>